<svg xmlns="http://www.w3.org/2000/svg" width="1706.667" height="1614.667" viewBox="0 0 1280 1211" preserveAspectRatio="xMidYMid meet" xmlns:v="https://vecta.io/nano"><path d="M25.3 1.9C15.3 5.3 7.7 12.2 3.1 22 .9 26.6.5 28.9.5 36c.1 7.2.5 9.4 3 14.4C6.9 57.7 13.1 64 20 67.5c5.8 2.9 3.4 2.5 113.5 20.9l71 12.1c1.3.3 2.7 2 3.7 4.7.9 2.4 11.1 28.4 22.8 57.8l36 91 32 81 32 81 32 81 32 81 68.1 172 19.3 50.7c.1 1.7-8.9 9.1-43.4 35.9l-51.5 40.6C362.3 899 345.8 926.5 341 955c-1.8 9.9-1.6 28.8.3 37.6 2.3 10.7 9.3 23.7 20.3 38 10.7 13.8 26.4 26.1 42.2 33 4 1.7 7.5 3.4 7.7 3.6.3.2-2.1 1.2-5.3 2.2-33 10.3-55.4 45.3-50.3 78.6 2.5 16 8.3 27.8 19.5 39.7 35.4 37.7 97.7 27.7 119.7-19.2 10.2-21.9 8.8-46.4-3.9-67.3-4.6-7.6-13.7-17.2-20.9-21.9-2.9-2-5.2-3.7-5.1-3.9.2-.1 123.1.2 273.3.6l310 1c35 .1 36.9.2 34.5 1.8-1.4.9-5.4 4.4-8.9 7.7-30.2 28.4-30.1 75.6.2 104.2 35.5 33.6 93.8 23.6 115.7-19.7 7.3-14.5 9.7-31.4 6.6-46.5-2-9.7-8.8-24-14.9-31.4-4.3-5.2-14.4-14.1-15.9-14.1-.5 0-.8-.4-.8-.9 0-.6 12.8-1.1 32.3-1.3 37-.3 37.1-.4 47.1-9.8 7.7-7.2 11-15 11.1-25.5 0-7.1-.4-8.8-3.2-14.6-3.9-7.9-10.2-14-18.1-17.7l-5.7-2.7-111.5-.7-394.5-1.7-287.6-2c-16.4-4.2-25.2-18.4-22.1-35.3 1.5-8.4 8.1-21.5 14.2-28.1 2.7-3 34.8-28.7 71.4-57.1l66.5-51.7 107.8-8.5L959 799l210-16.5c17.3-1.4 33.8-3.2 36.5-4 10.7-3 20.2-12.6 23.5-23.5 1-3.6 3.5-19.8 5.5-36l6.4-53.5 9.1-74 14.1-115 12-98.5c2.6-21.1 3.9-35.3 3.5-38.5-1.9-16.4-16.4-29.7-34-31.1-3.4-.2-52.9-1.6-110.1-2.9L992 302l-80.2-2-81-2-81.3-2-331.5-8-54.7-1.6c-6.1-.5-6.1-.6-7.8-4.7-1-2.3-8.4-21.1-16.5-41.7l-30-76-29.2-74c-7.6-19.5-15-37.3-16.3-39.6-2.9-4.9-9-10.6-14.2-13.2-6.1-3.1 3.8-1.3-132.4-24.2L34.9.1c-2.4 0-6.8.8-9.6 1.8zm432.2 341.5l44 1.1.3 63.2.2 63.3h-33.4-33.4l-11-27.8-25.2-63.7-14.7-36.8c-.6-.9 18.8-.8 73.2.7zM598 347l45.2 1h6.8v61.5V471h-61.5H527v-63.1-63l16.3.6L598 347zm131.5 3l56.3 1.6 13.2.6v59.4V471h-61.5H676v-61-61h5.3c2.8 0 24.6.4 48.2 1zm216.3 5.6c.9.3 1.2 12.7 1.2 57.9V471h-61.5H824v-59.3-59.2l60.2 1.3 61.6 1.8zm97.5 2.4l44.8 1h6.9v56 56h-61.5H972v-57.5-57.6l16.8.6 54.5 1.5zm152.5 3.6c19.8.5 28.2 1 28.2 1.8 0 .7-2.9 24.9-6.5 54l-6.5 53.2c0 .2-20.2.4-45 .4h-45v-55.7-55.6l23.3.6 51.5 1.3zM502 553v57.1l-6.1-.3-6.1-.3L482 590l-21.9-55.5-14.8-37.3c-.4-.9 5.6-1.2 28.1-1.2H502v57zm148 0v57h-61.5H527v-57-57h61.5H650v57zm148.8-.3l-.3 56.8-61.2.3-61.3.2v-57-57h61.5H799l-.2 56.7zm148.2.3v57h-61.5H824v-57-57h61.5H947v57zm148 0v57h-61.5H972v-57-57h61.5 61.5v57zm112.5-53.8c-.3 1.8-3.2 25.6-6.5 52.8l-6.5 53.7-.6 4.3h-36.5-36.4v-57-57h43.5 43.6l-.6 3.2zM502 637.2c0 1.9-.2 2-1 .8-1.3-1.9-1.3-3 0-3 .6 0 1 1 1 2.2zM650 694v59l-2.2.4c-1.3.3-21.2 1.9-44.3 3.6-23.1 1.8-44.5 3.8-47.5 4.5s-5.6 1.3-5.6 1.2c-.1-.1-5.4-13.5-11.8-29.7L527 703.4v-34.2V635h61.5H650v59zm149-6c0 41.6-.3 53.2-1.2 53.5-1.4.4-115.5 9.5-119.8 9.5h-2.5l.3-58 .2-58h61.5H799v53zm148-5.6v47.4l-5.7.6c-3.2.3-29.4 2.4-58.3 4.6l-55.7 4.4-3.3.5v-52.5V635h61.5H947v47.4zm148-5.9V718l-2.2.4c-1.3.3-26.6 2.3-56.3 4.6l-59.2 4.7-5.3.6v-46.7V635h61.5 61.5v41.5zm95.5-38.3c-.3 1.8-2.1 16.6-4 32.8l-4.3 35-.7 5.5-26 2.2-30.2 2.2-4.3.1v-40.5V635h35 35.1l-.6 3.2zm-744.1 461.6c26.9 12.6 33.7 46.4 13.5 67.7-20.1 21.2-55.7 16.4-69.3-9.5-12.5-23.8.2-53 26.3-60.6 2.8-.8 8.1-1.2 13.7-1 7.8.3 10.2.8 15.8 3.4zm691.7-1.8c15.7 5.3 26.1 17.4 29.1 34 3.2 16.9-6.8 36.2-22.7 44.1-22.2 10.9-48.4 2.1-58.8-19.8-3-6.4-3.2-7.5-3.2-17.8s.2-11.4 3.1-17.6c5.4-11.4 13.4-18.5 25.3-22.6 8.6-2.9 18.9-3 27.2-.3zm-717.8 19.6c-15.8 5.6-20.1 28-7.4 38.7 14.6 12.2 37.1 3.5 38.8-15 1.6-17.1-14.9-29.5-31.4-23.7zm696.1.1c-5.2 2.3-7.3 3.9-10.6 8.3-8.3 11-4.2 27.1 8.3 33.4 15.7 7.8 33.9-2.9 33.9-19.9 0-5.4-2.8-12.5-6.3-16.3-5.7-6.2-17.6-8.7-25.3-5.5z"/></svg>