<?xml version="1.0" encoding="UTF-8" standalone="no"?>
<!-- Created with Inkscape (http://www.inkscape.org/) -->

<svg
   xmlns:dc="http://purl.org/dc/elements/1.1/"
   xmlns:cc="http://creativecommons.org/ns#"
   xmlns:rdf="http://www.w3.org/1999/02/22-rdf-syntax-ns#"
   xmlns:svg="http://www.w3.org/2000/svg"
   xmlns="http://www.w3.org/2000/svg"
   xmlns:sodipodi="http://sodipodi.sourceforge.net/DTD/sodipodi-0.dtd"
   xmlns:inkscape="http://www.inkscape.org/namespaces/inkscape"
   version="1.1"
   id="svg10"
   xml:space="preserve"
   width="130.41974"
   height="169.05988"
   viewBox="0 0 130.41974 169.05988"
   sodipodi:docname="aeyon_logo.svg"
   inkscape:version="0.92.4 (5da689c313, 2019-01-14)"><metadata
     id="metadata16"><rdf:RDF><cc:Work
         rdf:about=""><dc:format>image/svg+xml</dc:format><dc:type
           rdf:resource="http://purl.org/dc/dcmitype/StillImage" /><dc:title></dc:title></cc:Work></rdf:RDF></metadata><defs
     id="defs14"><clipPath
       clipPathUnits="userSpaceOnUse"
       id="clipPath44"><path
         d="M 0,500 H 500 V 0 H 0 Z"
         id="path42"
         inkscape:connector-curvature="0" /></clipPath><clipPath
       clipPathUnits="userSpaceOnUse"
       id="clipPath126"><path
         d="M 0,500 H 500 V 0 H 0 Z"
         id="path124"
         inkscape:connector-curvature="0" /></clipPath><clipPath
       clipPathUnits="userSpaceOnUse"
       id="clipPath166"><path
         d="M 0,500 H 500 V 0 H 0 Z"
         id="path164"
         inkscape:connector-curvature="0" /></clipPath><clipPath
       clipPathUnits="userSpaceOnUse"
       id="clipPath228"><path
         d="M 0,500 H 500 V 0 H 0 Z"
         id="path226"
         inkscape:connector-curvature="0" /></clipPath></defs><sodipodi:namedview
     pagecolor="#ffffff"
     bordercolor="#666666"
     borderopacity="1"
     objecttolerance="10"
     gridtolerance="10"
     guidetolerance="10"
     inkscape:pageopacity="0"
     inkscape:pageshadow="2"
     inkscape:window-width="1920"
     inkscape:window-height="1001"
     id="namedview12"
     showgrid="false"
     fit-margin-top="0"
     fit-margin-left="0"
     fit-margin-right="0"
     fit-margin-bottom="0"
     inkscape:zoom="2.4239999"
     inkscape:cx="90.057543"
     inkscape:cy="127.55471"
     inkscape:window-x="-9"
     inkscape:window-y="-9"
     inkscape:window-maximized="1"
     inkscape:current-layer="g18" /><g
     id="g18"
     inkscape:groupmode="layer"
     inkscape:label="5310883"
     transform="matrix(1.3333333,0,0,-1.3333333,-421.02745,569.87652)"><text
       transform="scale(0.97812528,-1.0223639)"
       style="font-style:italic;font-variant:normal;font-weight:600;font-stretch:normal;font-size:23.59472847px;font-family:'Montserrat SemiBold';-inkscape-font-specification:Montserrat-SemiBoldItalic;writing-mode:lr-tb;fill:#27af4b;fill-opacity:1;fill-rule:nonzero;stroke:none;stroke-width:0.97812527"
       id="text28"
       x="340.25421"
       y="-311.50854"><tspan
         sodipodi:role="line"
         id="tspan26"
         style="stroke-width:0.97812527"
         x="340.25421"
         y="-311.50854">Ae</tspan></text>
<text
       transform="scale(0.97812528,-1.0223639)"
       style="font-style:italic;font-variant:normal;font-weight:bold;font-stretch:normal;font-size:23.59472847px;font-family:Montserrat;-inkscape-font-specification:Montserrat-BoldItalic;writing-mode:lr-tb;fill:#113f59;fill-opacity:1;fill-rule:nonzero;stroke:none;stroke-width:0.97812527"
       id="text114"
       x="375.7951"
       y="-312.15057"><tspan
         x="375.7951"
         y="-312.15057"
         sodipodi:role="line"
         id="tspan112"
         style="stroke-width:0.97812527">yon</tspan></text>
<g
       id="g120"><g
         id="g122"
         clip-path="url(#clipPath126)"><g
           id="g128"
           transform="translate(323.207,418.2964)"><path
             d="m 0,0 h 11.855 c 0.022,0 0.04,-0.016 0.041,-0.037 l 2.367,-21.884 8.127,9.586 -2.315,21.409 c -0.003,0.021 -0.02,0.037 -0.041,0.037 H -7.395 C -7.43,9.111 -7.449,9.07 -7.427,9.043 L -0.032,0.015 C -0.024,0.005 -0.013,0 0,0"
             style="fill:#27af4b;fill-opacity:1;fill-rule:nonzero;stroke:none"
             id="path130"
             inkscape:connector-curvature="0" /></g><g
           id="g132"
           transform="translate(384.0674,409.4263)"><path
             d="m 0,0 h -11.496 v -9.099 c 1.192,-0.007 7.783,-0.012 7.794,-0.012 h 4.297 c 7.915,0 14.312,-6.624 13.939,-14.619 C 14.183,-31.248 7.679,-37.019 0.152,-37.019 H -23.635 L -30.598,-45 c 2.146,-0.72 4.43,-1.129 6.806,-1.129 H 0.595 c 12.176,0 22.178,9.483 23.009,21.451 C 24.545,-11.125 13.586,0 0,0"
             style="fill:#27af4b;fill-opacity:1;fill-rule:nonzero;stroke:none"
             id="path134"
             inkscape:connector-curvature="0" /></g><g
           id="g136"
           transform="translate(367.5264,353.1372)"><path
             d="m 0,0 c 0,-4.083 -3.31,-7.393 -7.393,-7.393 -4.083,0 -7.392,3.31 -7.392,7.393 0,4.083 3.309,7.393 7.392,7.393 C -3.31,7.393 0,4.083 0,0"
             style="fill:#113f59;fill-opacity:1;fill-rule:nonzero;stroke:none"
             id="path138"
             inkscape:connector-curvature="0" /></g><g
           id="g140"
           transform="translate(398.6973,353.1372)"><path
             d="m 0,0 c 0,-4.083 -3.31,-7.393 -7.393,-7.393 -4.082,0 -7.392,3.31 -7.392,7.393 0,4.083 3.31,7.393 7.392,7.393 C -3.31,7.393 0,4.083 0,0"
             style="fill:#113f59;fill-opacity:1;fill-rule:nonzero;stroke:none"
             id="path142"
             inkscape:connector-curvature="0" /></g><g
           id="g144"
           transform="translate(363.4697,397.0962)"><path
             d="M 0,0 C -2.097,-0.398 -3.902,1.407 -3.504,3.505 -3.283,4.67 -2.33,5.623 -1.165,5.844 0.933,6.242 2.737,4.437 2.34,2.339 2.119,1.174 1.166,0.221 0,0 M -14.826,8.721 -36.744,-17.13 c -1.218,-1.437 -1.064,-3.584 0.348,-4.832 l 15.537,-13.737 c 1.439,-1.272 3.638,-1.129 4.901,0.318 L 6.88,-9.203 7.027,9.976 c 0.011,1.417 -1.269,2.494 -2.664,2.24 z"
             style="fill:#113f59;fill-opacity:1;fill-rule:nonzero;stroke:none"
             id="path146"
             inkscape:connector-curvature="0" /></g></g></g><text
       transform="scale(0.9781253,-1.0223639)"
       style="font-style:italic;font-variant:normal;font-weight:bold;font-stretch:normal;font-size:23.59472847px;font-family:Montserrat;-inkscape-font-specification:Montserrat-BoldItalic;writing-mode:lr-tb;fill:#113f59;fill-opacity:1;fill-rule:nonzero;stroke:none;stroke-width:0.97812521"
       id="text114-7"
       x="353.72058"
       y="-294.22076"><tspan
         x="353.72058"
         y="-294.22076"
         sodipodi:role="line"
         id="tspan112-4"
         style="font-size:13px;stroke-width:0.97812521">Admin</tspan></text>
</g></svg>